<?xml version="1.0" encoding="utf-8"?><!-- Uploaded to: SVG Repo, www.svgrepo.com, Generator: SVG Repo Mixer Tools -->
<svg width="12px" stroke="#000" height="12px" viewBox="0 0 24 24" fill="none" xmlns="http://www.w3.org/2000/svg">
<path fill-rule="evenodd" d="M9 12a3.5 3.5 0 1 0 0-7 3.5 3.5 0 0 0 0 7zm0 2c-2.34 0-7 .92-7 3.25V18a1 1 0 0 0 1 1h12a1 1 0 0 0 1-1v-.75C16 14.92 11.34 14 9 14zm7 0c1.17.84 2 1.77 2 3.25V19h3a1 1 0 0 0 1-1v-.75c0-2.02-3.52-2.98-6-3.25zm-1-2a3.5 3.5 0 0 0 0-7c-.54 0-1.04.13-1.5.35a5.44 5.44 0 0 1 0 6.3c.46.22.96.35 1.5.35z" clip-rule="evenodd"></path>
</svg>