<svg version="1.1" id="Layer_1" xmlns="http://www.w3.org/2000/svg" xmlns:xlink="http://www.w3.org/1999/xlink" x="0px" y="0px"
	 width="100%" viewBox="0 0 1024 608" enable-background="new 0 0 1024 608" xml:space="preserve">
<path fill="#000000" opacity="1.000000" stroke="none" 
	d="
M234.521271,309.435913 
	C229.390121,297.622986 222.441620,287.180328 217.243301,275.786011 
	C214.619949,270.035828 209.316269,265.719849 204.201447,261.547455 
	C195.495392,254.445587 186.432785,248.030029 176.134293,243.513199 
	C168.310303,240.081696 161.093338,235.614670 154.018188,230.916641 
	C150.284485,228.437393 146.284378,225.798904 146.877655,220.377075 
	C147.489502,214.785538 151.334732,212.262039 156.299149,210.643814 
	C168.064163,206.808823 180.223740,204.801208 192.360336,202.756561 
	C199.237183,201.598007 199.598099,201.458511 199.799438,194.336578 
	C200.096939,183.812592 205.406693,174.966965 209.677338,165.797256 
	C211.010834,162.934067 212.866364,160.308258 214.130219,157.419464 
	C217.461502,149.805252 223.548706,146.038559 231.458481,146.119400 
	C243.385849,146.241272 253.809372,141.986618 263.998657,136.588669 
	C266.769836,135.120590 274.727173,138.858292 276.372284,142.346603 
	C278.481598,146.819290 280.313080,151.467148 283.506256,155.331558 
	C286.672577,159.163498 284.079468,162.739731 282.825439,166.115005 
	C281.506531,169.664856 281.762329,172.187500 285.095337,174.152328 
	C292.561798,178.553864 298.157135,184.914978 303.415741,191.633347 
	C304.013031,192.396423 304.590302,193.299118 306.377747,192.971420 
	C307.631104,187.576675 308.793518,181.956314 308.962402,176.160828 
	C309.012756,174.432175 308.355652,172.878479 307.184753,171.608124 
	C302.229462,166.231903 298.135010,160.125458 292.683075,155.149475 
	C286.467285,149.476349 287.901001,140.073685 295.508850,136.767380 
	C308.330597,131.195190 321.219238,125.551636 335.648254,126.109741 
	C342.365234,126.369553 349.025024,126.446388 354.327454,132.245270 
	C357.445770,135.655609 358.176514,138.781006 356.562256,142.537186 
	C355.574493,144.835678 355.172577,146.746964 356.043823,149.165527 
	C357.132385,152.187302 356.848450,154.473221 352.492493,153.847183 
	C347.841034,153.178680 348.724976,157.207581 347.217590,160.370926 
	C353.177826,157.745514 358.999420,159.415344 364.284119,156.886139 
	C367.781769,155.212189 370.837860,152.660767 375.080231,152.235718 
	C390.245331,150.716385 405.347900,148.563904 420.640381,148.599258 
	C428.651550,148.617783 431.302277,155.144119 435.396301,160.610840 
	C430.804749,157.164597 426.546051,160.094543 422.236511,160.392395 
	C421.334503,160.454727 420.036438,160.105209 419.513000,159.462921 
	C416.129791,155.311676 412.223541,156.761749 408.148834,157.979950 
	C404.810394,158.978043 401.382172,159.915085 397.932343,160.253632 
	C389.647217,161.066742 382.623505,165.093567 375.450500,168.683578 
	C371.427917,170.696854 367.541107,173.013428 363.255096,174.397552 
	C360.375305,175.327560 359.452393,176.709564 359.856384,179.868210 
	C361.101990,189.606964 362.460754,199.379578 362.797882,209.172684 
	C363.138153,219.057999 364.749481,228.784424 359.412720,238.708237 
	C354.966827,246.975342 354.123596,257.143555 352.133392,266.606171 
	C349.892578,277.260010 349.513519,287.413666 353.151123,297.928802 
	C356.240387,306.858917 357.954010,316.264893 360.276978,325.460114 
	C360.521698,326.428802 360.849854,327.383850 361.005737,328.366394 
	C362.339111,336.771973 362.329895,336.777161 371.116882,336.777405 
	C407.115845,336.778503 443.114838,336.786530 479.113770,336.752869 
	C481.222504,336.750885 483.411133,337.135437 485.427582,336.183014 
	C485.804749,334.600555 484.531342,334.054016 483.744995,333.336243 
	C477.073212,327.246185 471.480103,320.278290 465.971344,313.119568 
	C459.575623,304.808258 451.189087,298.288483 443.538300,291.122833 
	C440.984497,288.730957 438.466370,286.300507 435.953339,283.865601 
	C428.884247,277.016205 429.203491,269.269928 436.956177,262.947083 
	C444.591217,256.720123 452.751678,251.256516 461.495850,246.686371 
	C462.653961,246.081100 463.767120,245.389908 465.450684,244.422806 
	C462.725342,241.773651 460.115631,239.533646 457.851837,236.986221 
	C446.747833,224.490845 442.120544,210.434586 446.278931,193.613281 
	C447.799103,187.463867 448.673218,181.585663 454.352295,177.770599 
	C456.075714,176.612839 455.218018,175.244781 454.358093,173.885300 
	C449.580994,166.332932 444.901672,158.718964 441.099854,150.613876 
	C440.272797,148.850647 438.850677,148.292282 437.141052,148.027222 
	C432.704620,147.339340 428.268921,146.646454 423.832092,145.961090 
	C419.954987,145.362183 417.579224,143.579361 420.240570,139.651428 
	C421.509247,137.778915 419.284515,136.453506 420.370117,134.972046 
	C421.139069,134.008972 422.119354,134.101013 423.084503,134.505249 
	C427.925873,136.533005 433.097534,137.019485 438.218323,137.439972 
	C441.316345,137.694397 443.949524,138.762253 445.551117,141.105057 
	C450.879395,148.899048 459.123138,154.235703 463.034271,163.359879 
	C465.594727,169.332977 470.372833,169.946426 475.911804,166.762711 
	C479.364594,164.778091 482.974091,163.105652 485.161682,159.408554 
	C485.834625,158.271194 487.674194,156.986389 488.829437,157.115234 
	C494.218658,157.716324 497.339508,153.983231 501.076843,151.358109 
	C507.051819,147.161240 513.840881,144.903595 520.879333,143.410019 
	C530.935852,141.275986 540.269348,138.210403 544.692810,127.611725 
	C544.890320,127.138496 545.729431,126.933044 546.154175,126.673500 
	C548.403381,127.606415 547.673584,129.256042 547.434875,130.628738 
	C546.675476,134.995453 547.882385,137.072769 552.736145,135.848297 
	C555.661987,135.110168 558.391357,135.544800 560.420044,139.999359 
	C539.173340,141.178848 523.898315,155.037033 505.849609,163.951218 
	C509.900879,167.796036 513.669189,171.716324 513.897217,177.710327 
	C514.080017,182.517029 513.650146,187.051331 510.161011,190.749817 
	C508.976227,192.005692 508.012512,193.271988 508.543732,195.176468 
	C509.423492,198.330719 508.436951,200.818527 505.510773,202.300201 
	C502.302551,203.924652 498.057068,204.442673 496.264984,201.618484 
	C492.943298,196.383804 487.494629,196.351303 482.392242,193.988342 
	C479.805511,199.782211 477.949768,205.683167 478.147888,212.091003 
	C478.224396,214.566208 479.781586,215.535339 482.193024,215.389359 
	C489.776764,214.930283 496.607788,217.006149 502.948303,221.202377 
	C506.833557,223.773666 511.155762,222.123001 515.023132,221.078598 
	C520.997375,219.465210 526.939026,218.054886 533.125916,217.606995 
	C538.046204,217.250763 539.070618,215.681625 538.069458,210.835953 
	C536.442566,202.961777 538.237488,195.595474 541.629700,188.550858 
	C543.992249,183.644547 546.121460,178.900757 543.247253,173.382034 
	C542.216614,171.403061 542.531921,168.942932 544.195801,167.288559 
	C547.327820,164.174500 548.536987,160.213211 549.477173,156.159515 
	C550.330994,152.478378 552.593872,149.966293 555.472778,147.860977 
	C556.941650,146.786789 558.560730,145.535431 560.483215,146.567963 
	C562.173584,147.475830 562.084351,149.334198 562.197998,151.001663 
	C562.555115,156.243118 561.906250,161.479996 559.979248,166.239532 
	C553.879272,181.305481 554.830566,196.861588 556.059814,212.473068 
	C557.111267,225.827103 551.251465,233.928192 538.361938,237.357346 
	C526.634338,240.477386 515.019897,244.021301 503.326843,247.274780 
	C500.775299,247.984711 498.836761,249.439636 497.160767,251.316193 
	C487.184479,262.486084 474.451324,269.055786 460.429688,273.546143 
	C458.428680,274.186981 456.299347,274.845154 454.849213,277.159332 
	C461.796936,282.741760 465.183472,290.754211 469.425568,298.258057 
	C472.078156,302.950165 474.970673,307.693634 481.529114,308.237915 
	C484.970612,308.523560 486.568695,311.771271 486.569122,314.856476 
	C486.570129,322.178925 491.269836,327.939728 492.651428,334.786652 
	C493.233185,337.669861 496.138153,336.800812 498.167023,336.804443 
	C525.499512,336.853119 552.832031,336.842163 580.164612,336.845856 
	C631.995483,336.852844 683.827087,336.734924 735.656433,337.022369 
	C742.242615,337.058868 747.923889,334.241089 752.704163,331.454407 
	C758.489746,328.081635 758.726196,320.453125 757.221924,313.720367 
	C755.938965,307.977997 753.394531,302.728027 750.758850,297.517792 
	C746.860046,289.810730 744.149902,281.499634 738.722229,274.564911 
	C736.730042,272.019623 735.964172,268.917480 736.442017,265.584839 
	C736.629578,264.276489 736.609253,262.918640 736.519165,261.594543 
	C736.362427,259.289246 734.664368,258.099060 732.836304,257.248230 
	C730.651123,256.231171 730.040649,258.381165 728.979187,259.507202 
	C713.006592,276.450928 703.057739,296.920197 694.650024,318.281036 
	C693.586548,320.982910 692.525879,323.492859 689.318665,324.361877 
	C686.813416,325.040680 687.130066,327.528381 686.782410,329.364960 
	C685.924255,333.897980 683.057922,335.880798 678.756226,336.120453 
	C673.892578,336.391418 670.402283,332.298645 672.521973,327.971283 
	C680.806946,311.057068 684.340454,292.262604 693.495056,275.713745 
	C695.807861,271.532867 699.519470,268.444366 701.623840,263.976044 
	C703.221497,260.583588 703.754761,257.563782 703.464111,253.985214 
	C702.386108,240.709229 697.437683,228.413025 693.823364,215.804688 
	C689.814087,201.818253 692.573059,197.642258 707.194336,197.828400 
	C713.346130,197.906708 719.494080,198.418900 725.639648,198.800369 
	C728.455078,198.975143 729.823975,198.055099 731.102844,195.154816 
	C737.215454,181.292511 743.550049,167.508072 751.278625,154.441315 
	C755.237915,147.747391 760.356567,145.812897 767.787109,148.044479 
	C772.716431,149.524918 777.565735,151.241577 782.727295,148.966644 
	C783.451111,148.647614 784.469910,148.487625 785.183105,148.737152 
	C789.871765,150.377655 792.898315,148.072083 796.653076,145.428650 
	C801.750366,141.840057 807.854614,142.957993 813.195251,146.082138 
	C817.263123,148.461761 820.901184,156.589417 819.872925,160.927658 
	C819.032593,164.473099 816.307373,166.990021 813.628784,169.106873 
	C810.793091,171.347870 808.727051,173.951004 806.842285,177.893738 
	C813.137207,179.769180 817.623718,185.280258 825.363342,184.364548 
	C831.596741,183.627060 837.885376,185.829727 843.979736,187.398911 
	C847.405090,188.280869 849.916016,195.690384 850.009399,199.333099 
	C850.170349,205.606903 849.646973,211.858810 849.604980,218.012405 
	C853.796814,220.354034 857.740845,220.035873 861.735596,217.994400 
	C864.293091,220.552963 865.382446,223.552795 864.033142,226.684891 
	C861.979370,231.452240 860.437012,236.754456 853.550354,237.169296 
	C846.872498,237.571564 846.893372,237.910065 848.299255,244.486038 
	C848.856018,247.090210 849.548706,249.674606 849.934937,252.303940 
	C850.604431,256.861145 847.116638,259.707214 842.775024,258.094269 
	C839.915771,257.032043 837.706177,255.103317 836.000549,252.445618 
	C830.904419,244.504852 825.626282,236.681107 820.451721,228.790390 
	C818.371094,225.617630 817.711365,222.056824 817.712708,218.309448 
	C817.713318,216.657806 817.787048,214.731796 816.122498,213.821716 
	C814.302856,212.826889 812.914978,214.353561 811.756653,215.422348 
	C805.901550,220.824432 799.282532,225.394745 794.511658,231.993347 
	C792.668762,234.542328 792.018799,236.252899 794.282593,238.866837 
	C799.419312,244.798172 803.009888,251.842133 807.325195,258.346558 
	C811.242676,264.251312 812.254700,271.686890 814.055542,278.581238 
	C817.378357,291.302460 818.737610,304.520172 823.019531,316.974640 
	C825.354126,323.765076 829.163757,329.976501 836.654907,332.616699 
	C838.065186,333.113770 839.517029,333.566437 840.282288,334.982910 
	C840.628479,335.963074 840.175415,336.792816 839.555115,337.250854 
	C836.102539,339.800049 833.457153,342.783386 831.852539,346.954010 
	C830.715332,349.909943 827.334961,349.245331 824.721741,349.250610 
	C794.556335,349.311432 764.390930,349.371979 734.225464,349.361877 
	C554.064209,349.301605 373.902954,349.222778 193.741714,349.148834 
	C191.408478,349.147888 189.067062,349.249207 186.743927,349.090668 
	C183.203552,348.849152 179.443008,348.801483 179.672546,343.565979 
	C179.870499,339.050903 182.156418,336.757202 186.962234,336.706879 
	C192.628067,336.647552 198.295105,336.698700 203.961609,336.708557 
	C216.127747,336.729675 228.293915,336.776001 240.460037,336.769379 
	C246.137726,336.766296 246.738098,335.887878 244.169632,330.681549 
	C240.781006,323.812714 237.352356,316.970612 234.521271,309.435913 
M236.166412,175.660080 
	C235.338928,176.220306 234.501831,176.766907 233.685455,177.342880 
	C226.050079,182.729843 225.249847,185.024567 227.553970,194.216125 
	C228.443039,197.762711 229.403549,201.322174 229.876968,204.935333 
	C230.696198,211.187805 230.286423,217.267319 225.784866,222.340912 
	C224.040100,224.307404 222.972183,226.925705 223.480270,229.267288 
	C225.296249,237.636581 224.555328,246.207092 225.809692,254.540787 
	C226.682724,260.341095 228.030899,266.339447 231.690552,271.371216 
	C235.644318,276.807373 238.455124,282.770996 240.130859,289.332458 
	C241.611694,295.130768 243.547562,300.812256 245.254547,306.553650 
	C246.143738,309.544373 247.423065,312.065643 250.797821,313.023315 
	C253.074020,313.669250 254.694611,315.560944 254.557953,317.827850 
	C254.258240,322.799835 256.549408,327.261078 256.898254,331.996735 
	C257.199554,336.087006 258.925323,336.855988 262.544800,336.822327 
	C280.533936,336.655090 298.525116,336.725739 316.515167,336.631775 
	C318.958679,336.618988 321.481628,337.171906 324.268799,335.996185 
	C321.913513,330.016815 323.174103,324.431000 326.427032,319.172333 
	C327.147491,318.007690 327.525024,316.822754 327.689453,315.455688 
	C328.543182,308.358276 329.840820,301.339172 331.248993,294.325836 
	C332.552094,287.835815 332.956940,281.536194 330.641785,274.768921 
	C326.627014,263.033752 321.727631,251.437454 320.968201,238.754715 
	C320.747528,235.069962 320.369507,231.283417 318.859344,227.658676 
	C314.698914,229.352692 310.857666,230.908905 307.022736,232.480606 
	C303.678711,233.851120 302.697662,232.130066 302.934845,229.205139 
	C303.566498,221.415207 304.220215,213.625046 305.031372,205.852325 
	C305.656982,199.857803 304.084564,197.692459 297.498505,196.279541 
	C296.458099,198.598221 298.371246,202.091629 295.133087,203.595978 
	C292.843109,202.756577 292.903107,200.983124 292.674103,199.361771 
	C291.585907,191.656830 288.618652,185.472748 280.220184,183.411621 
	C278.472961,182.982803 276.839417,182.008423 275.221466,181.156372 
	C273.214050,180.099258 271.356995,178.146408 269.077942,180.694946 
	C266.875580,183.157745 264.295105,185.208008 266.241425,189.325790 
	C268.077148,193.209595 269.075226,197.485535 270.500244,201.568588 
	C271.416779,204.194794 271.159058,206.367554 268.552521,207.969437 
	C265.556244,206.118469 267.126526,201.974792 264.141510,200.204468 
	C262.845947,199.791351 262.445862,202.293091 260.687073,201.393768 
	C259.281799,199.576340 260.022461,197.400131 260.209839,195.308548 
	C260.368744,193.534988 261.309875,191.476547 258.950897,190.547577 
	C256.942749,189.756790 255.272491,190.938782 254.222305,192.486664 
	C251.573730,196.390472 248.095581,198.761444 243.426193,199.685211 
	C241.881073,199.990891 240.459396,200.463898 239.211151,199.444809 
	C237.694534,198.206619 238.641281,196.692932 239.196320,195.337509 
	C241.582108,189.511093 243.884338,183.645523 246.472656,177.909561 
	C247.410553,175.831070 246.729675,174.392502 245.661484,172.872620 
	C244.424942,171.113205 242.931595,172.227829 241.649139,172.758972 
	C239.966522,173.455887 238.394485,174.419830 236.166412,175.660080 
M773.665649,268.181732 
	C773.183777,267.561493 772.701904,266.941284 771.544312,265.451355 
	C771.508301,269.242706 770.199890,271.653076 768.883118,274.064911 
	C764.745361,281.643921 763.181519,289.315521 765.749451,298.031830 
	C767.528137,304.069153 767.394165,311.309326 772.047546,315.573029 
	C779.145569,322.076752 774.866943,328.729187 775.008850,335.777008 
	C771.336426,334.607849 773.885193,328.733917 769.776306,329.805756 
	C766.579163,330.639709 764.475586,333.802032 763.047913,337.756409 
	C767.903625,337.364380 772.163086,336.767578 776.471680,336.847534 
	C785.288879,337.011261 794.111877,336.892670 802.932007,336.829285 
	C804.529968,336.817810 807.359741,336.990814 807.089600,335.211121 
	C806.270935,329.818726 808.821533,324.559631 806.538330,319.016632 
	C801.359009,306.442596 795.942261,293.882172 794.745850,280.041382 
	C794.188904,273.598358 790.714050,268.389374 785.776672,264.555664 
	C783.489624,262.779846 782.269104,259.172546 778.451538,259.234222 
	C777.335388,262.210754 778.617065,265.083771 778.044800,267.834412 
	C777.391479,270.973907 776.057007,271.638397 773.665649,268.181732 
M324.934540,146.771072 
	C324.887451,145.194290 325.920868,143.962494 326.290985,142.555389 
	C326.800018,140.620377 328.670868,138.431244 326.490143,136.581772 
	C324.427917,134.832733 321.631042,134.685349 319.385956,135.830460 
	C314.408478,138.369202 309.367767,140.945267 305.645996,144.992172 
	C309.566071,153.212234 318.096558,153.619186 324.630493,157.522079 
	C322.869080,154.016495 324.926239,150.844620 324.934540,146.771072 
M181.455704,227.333679 
	C180.641403,227.333679 179.827087,227.333679 178.358688,227.333679 
	C180.844940,229.561142 182.808304,231.503326 184.959396,233.208725 
	C189.264053,236.621429 193.637573,239.950424 198.057343,243.212860 
	C199.363159,244.176758 200.934708,245.387283 202.625519,244.412720 
	C204.556610,243.299667 203.420456,241.447433 203.142410,239.899231 
	C202.701080,237.441925 202.038269,235.019653 201.691437,232.551315 
	C201.268234,229.539581 199.669266,228.297592 196.662292,228.205017 
	C191.839401,228.056534 187.024582,227.645477 181.455704,227.333679 
M336.684784,332.577637 
	C336.836121,334.225555 334.531464,334.216705 334.053314,335.872864 
	C339.679901,336.516266 344.829865,337.451263 350.333649,335.762299 
	C347.224915,329.262268 347.111969,322.076660 342.224762,316.735168 
	C340.403961,321.969086 338.670563,326.951752 336.684784,332.577637 
M787.550598,225.915085 
	C788.543030,224.342865 789.874023,222.894821 789.760925,220.681213 
	C786.819275,221.000778 784.232666,221.267670 781.614990,220.620621 
	C779.277466,220.042786 778.032959,221.026413 778.672485,223.519363 
	C779.525940,226.846512 784.091736,228.361984 787.550598,225.915085 
M792.955139,216.262817 
	C792.947815,216.719681 792.940491,217.176559 792.933167,217.633423 
	C793.094116,217.632523 793.332275,217.701141 793.404907,217.620621 
	C795.895020,214.858597 798.369568,212.082489 801.046387,209.084305 
	C794.885559,207.904694 794.262512,212.051193 792.955139,216.262817 
z"/>
<path fill="#000000" opacity="1.000000" stroke="none" 
	d="
M573.570801,294.668762 
	C570.736938,300.993408 569.046753,301.527161 563.796997,297.672760 
	C560.738342,295.427094 557.452026,293.340790 556.438599,289.193634 
	C556.008545,287.433472 554.259644,286.724579 552.666382,286.203552 
	C545.848694,283.974182 541.111206,279.072235 536.877686,273.672394 
	C535.300049,271.660095 532.372742,269.245422 535.634460,266.390656 
	C538.388855,263.979889 541.081970,261.681519 545.230957,264.863739 
	C552.446777,270.398071 559.933411,267.336456 567.413086,265.188904 
	C567.331055,261.536865 563.314758,260.617889 563.431641,257.293182 
	C565.150391,256.225342 568.224060,257.584351 568.840454,254.392319 
	C568.973389,253.704239 570.376282,253.441849 571.037292,254.012085 
	C572.372803,255.164230 574.093384,256.073944 574.172729,258.247772 
	C574.219604,259.532043 572.946228,260.741241 574.125183,262.257721 
	C576.727112,262.836823 576.867065,260.588318 577.263977,259.019958 
	C578.126587,255.611633 580.149597,254.006622 583.665344,253.917236 
	C591.963745,253.706299 597.133972,248.051727 602.550476,242.857697 
	C604.133911,241.339264 603.184387,239.862366 602.616821,238.289963 
	C599.691040,230.184326 602.317322,223.145493 610.222900,219.226547 
	C615.932190,216.396332 621.162354,212.888947 626.421936,209.373032 
	C628.912354,207.708191 631.369446,206.072449 634.698486,206.539612 
	C639.465332,207.208557 638.882080,202.166565 642.092346,200.248703 
	C633.461548,193.466080 626.080200,186.261566 616.061157,183.009918 
	C610.976013,181.359558 606.533752,181.956909 602.448853,186.223724 
	C596.670654,192.259201 588.600403,194.857071 581.143982,197.938293 
	C574.232971,200.794128 569.680664,195.556931 569.969788,187.535141 
	C570.339355,177.283569 573.145142,167.560379 575.119446,157.646240 
	C575.281860,156.830872 575.756226,155.941666 575.574890,155.214005 
	C572.280518,141.990448 582.269165,135.309921 589.272522,127.129578 
	C591.835327,124.136147 594.691833,123.423141 598.089600,125.456467 
	C601.650513,127.587463 605.027710,128.412415 608.436646,125.047256 
	C609.552063,123.946198 611.239563,123.772720 612.484863,125.127769 
	C613.588318,126.328346 612.905823,127.538910 612.284058,128.790344 
	C610.006470,133.374191 610.918152,136.820114 614.930054,139.757233 
	C618.948547,142.699158 621.880676,140.887878 624.998291,138.001282 
	C634.198303,129.483093 643.376892,120.919022 653.875000,113.950493 
	C655.561768,112.830788 657.139954,111.511513 657.986267,109.665802 
	C661.166321,102.730217 666.047607,97.014069 671.221619,91.601852 
	C677.759399,84.763138 683.167236,77.640350 683.855408,67.612343 
	C684.170410,63.022438 687.421021,61.408295 690.452087,63.252357 
	C692.088379,62.431492 692.153503,59.543949 694.964844,59.852608 
	C697.046448,62.853664 693.068115,66.044174 694.803284,69.105469 
	C697.000671,69.263496 697.636597,67.335434 698.945374,66.451225 
	C700.147400,65.639168 701.344116,64.978500 702.477173,66.278954 
	C703.412109,67.352051 702.967163,68.758240 701.998169,69.385773 
	C697.006165,72.618698 695.494812,79.022209 690.121399,82.032005 
	C688.310364,83.046364 687.291626,85.649055 686.155945,87.664040 
	C681.908936,95.199646 677.913025,102.858261 674.951965,111.022194 
	C674.460571,112.377090 673.627136,114.009499 672.471558,114.658218 
	C663.419922,119.739799 659.556458,129.774948 651.788574,136.043350 
	C649.789001,137.656891 650.514160,139.481171 651.302795,141.452164 
	C654.241882,148.797623 659.175537,154.964493 663.083496,161.733917 
	C671.316833,175.995605 679.521118,190.276352 687.526489,204.666565 
	C692.052979,212.803314 689.186829,220.862930 686.425659,228.780624 
	C685.593750,231.165909 682.920044,231.064636 681.168884,232.220474 
	C670.989685,238.939270 659.693848,243.571167 649.086121,249.484024 
	C647.476074,250.381485 644.882935,250.784393 645.902283,253.652039 
	C646.915588,256.503052 646.888428,260.235504 651.086365,260.719482 
	C652.734680,260.909515 654.414917,260.818359 656.080322,260.865112 
	C663.363159,261.069763 666.076599,263.424530 664.622131,270.662262 
	C663.324341,277.120544 663.883301,282.898651 665.520996,289.115448 
	C666.736816,293.730865 665.498657,298.699860 663.913818,303.316528 
	C662.140259,308.482880 659.827026,309.194397 655.378906,306.150452 
	C653.588806,304.925415 652.466797,303.221008 652.312744,301.211670 
	C651.890259,295.700165 649.550781,291.186310 646.410828,286.708893 
	C644.238586,283.611298 642.338867,281.555389 638.285339,283.089691 
	C637.108765,279.553558 632.758484,277.187439 636.170715,272.654785 
	C631.969727,272.212158 628.383362,272.250153 627.245361,267.301025 
	C626.765625,265.214722 624.036194,263.650299 621.109619,265.704865 
	C617.409424,268.302551 613.149048,269.927216 608.826599,271.095154 
	C599.828674,273.526337 592.211060,279.002838 583.550781,282.167664 
	C577.954224,284.212860 577.473999,290.638855 573.570801,294.668762 
M593.846558,172.406525 
	C596.299133,169.800644 598.751770,167.194763 601.518555,164.255096 
	C598.178406,162.807022 595.189880,161.451614 593.161316,158.187592 
	C590.181152,161.437958 584.416321,161.295425 583.593628,165.603333 
	C582.761292,169.962036 580.574951,174.963211 584.202637,179.630814 
	C588.059753,178.244125 589.398621,173.804001 593.846558,172.406525 
z"/>
<path fill="#000000" opacity="1.000000" stroke="none" 
	d="
M348.000000,500.111908 
	C391.989014,500.286194 435.477875,500.544067 478.967041,500.613342 
	C533.282593,500.699890 587.603271,501.088135 641.912842,500.511292 
	C706.569580,499.824524 771.223083,500.363983 835.877075,500.063751 
	C839.029907,500.049133 842.222473,499.775574 845.175354,501.353027 
	C846.807983,502.225189 848.724854,502.943420 848.495911,505.208191 
	C848.296570,507.180115 846.806213,508.402679 845.110718,509.241608 
	C843.415222,510.080566 841.549683,509.998932 839.714233,509.997314 
	C796.718445,509.959229 753.719360,510.246429 710.727417,509.819153 
	C604.909668,508.767426 499.091766,509.578430 393.274445,509.552368 
	C380.453613,509.549225 367.632416,509.398590 354.812042,509.427979 
	C300.656921,509.552002 246.502029,509.783630 192.346970,509.949188 
	C190.023911,509.956299 187.690811,509.785767 185.379120,509.540344 
	C183.075546,509.295746 181.011734,508.465302 181.014252,505.686829 
	C181.016647,503.033386 182.571228,501.177338 185.071411,500.663086 
	C187.488922,500.165833 190.028732,500.121704 192.514923,500.120575 
	C244.176605,500.096924 295.838287,500.107788 348.000000,500.111908 
z"/>
<path fill="#000000" opacity="1.000000" stroke="none" 
	d="
M700.009277,421.013031 
	C708.192322,431.033722 716.150574,440.779327 724.182617,450.615234 
	C726.496643,448.550354 725.722046,446.422485 725.726257,444.569305 
	C725.771606,424.585419 725.792480,404.600922 725.656067,384.617676 
	C725.628052,380.505829 726.358093,377.880951 731.298035,377.955597 
	C736.281494,378.030945 736.320862,381.146759 736.313354,384.712738 
	C736.251160,414.355591 736.233521,443.998566 736.179138,473.641449 
	C736.175964,475.387573 736.833679,477.686737 734.483032,478.313873 
	C732.507690,478.840912 731.786072,476.729187 730.781799,475.492645 
	C711.472473,451.719116 692.181519,427.930603 672.884277,404.147217 
	C672.162720,403.257874 671.504028,402.271881 670.161377,402.033539 
	C668.629333,403.802460 669.320068,405.891418 669.314514,407.772644 
	C669.255066,427.922760 669.248718,448.073273 669.323486,468.223328 
	C669.336792,471.803467 668.904297,474.323639 664.332336,474.408569 
	C659.807922,474.492615 658.643066,472.511292 658.664246,468.381836 
	C658.782166,445.400726 658.750427,422.418732 658.720703,399.437103 
	C658.711426,392.279846 658.579956,385.122192 658.432617,377.966217 
	C658.400879,376.427734 658.151733,374.734680 659.719299,373.975891 
	C661.765137,372.985596 662.640625,374.884186 663.650879,376.129913 
	C675.703491,390.992737 687.742188,405.866821 700.009277,421.013031 
z"/>
<path fill="#000000" opacity="1.000000" stroke="none" 
	d="
M455.653534,452.635376 
	C460.408173,447.004669 462.074951,440.736755 462.054901,433.836090 
	C462.005005,416.670532 462.050995,399.504639 462.064087,382.338898 
	C462.066772,378.789551 462.364777,375.556488 467.191528,375.472443 
	C471.286896,375.401062 473.267670,376.828705 473.228027,381.293335 
	C473.068207,399.291138 473.336487,417.293579 473.093811,435.289551 
	C472.803040,456.854187 454.529449,474.436737 432.975891,474.274536 
	C410.895782,474.108368 393.755371,456.966980 393.654968,434.840790 
	C393.574799,417.175110 393.672699,399.508514 393.552979,381.843231 
	C393.526459,377.930420 394.314056,375.504913 398.957001,375.438324 
	C403.923798,375.367096 404.172333,378.341461 404.166992,381.989380 
	C404.141968,398.988495 404.140869,415.987823 404.206726,432.986816 
	C404.269104,449.085999 413.366180,460.422211 429.216156,463.044342 
	C439.612732,464.764252 448.526794,461.052185 455.653534,452.635376 
z"/>
<path fill="#000000" opacity="1.000000" stroke="none" 
	d="
M516.300110,405.792908 
	C521.775085,420.673737 527.140808,435.178467 532.712402,450.239655 
	C535.522583,447.659882 536.018799,444.480255 537.043640,441.708466 
	C544.431091,421.726501 551.756531,401.720642 558.918823,381.657074 
	C560.494629,377.242767 562.892639,375.095245 567.757385,375.670013 
	C571.472168,376.108917 572.309082,377.785278 571.097290,381.055847 
	C566.470581,393.543457 561.880432,406.044586 557.248535,418.530304 
	C550.304504,437.248444 543.327820,455.954437 536.393250,474.676056 
	C535.707642,476.526947 535.500671,478.620850 533.393188,479.635345 
	C530.936584,479.421692 530.898499,477.276215 530.300720,475.657959 
	C518.886658,444.760010 507.474457,413.861267 496.143677,382.932709 
	C495.314178,380.668488 493.080322,377.853699 496.790283,376.035675 
	C500.480286,374.227386 505.423889,376.004059 506.779175,379.612885 
	C509.997894,388.183594 513.063416,396.811829 516.300110,405.792908 
z"/>
<path fill="#000000" opacity="1.000000" stroke="none" 
	d="
M630.420898,435.127930 
	C634.827576,435.792908 635.417786,438.558380 634.991211,441.849121 
	C634.544678,445.294067 631.984741,445.904388 629.124451,445.918427 
	C622.799255,445.949402 616.471680,446.038177 610.149353,445.903809 
	C606.603882,445.828491 605.025574,447.086731 605.065369,450.824860 
	C605.224365,465.736938 604.155579,463.642700 616.983032,463.134583 
	C622.466980,462.917328 627.968750,463.191742 633.460083,463.103058 
	C637.302979,463.041046 638.219727,465.169647 638.218811,468.511719 
	C638.217896,471.971008 637.464783,474.345276 633.293396,474.311798 
	C621.808594,474.219696 610.322327,474.240143 598.837097,474.299561 
	C595.238220,474.318207 593.782715,472.685608 593.787720,469.131226 
	C593.829163,439.668427 593.813354,410.205505 593.774109,380.742706 
	C593.769348,377.190674 595.311829,375.632050 598.913940,375.659607 
	C609.233398,375.738586 619.554138,375.684204 629.874146,375.632202 
	C633.265381,375.615112 635.186584,376.852448 635.209534,380.578979 
	C635.232727,384.346466 633.969543,386.741699 629.868652,386.782379 
	C623.217957,386.848358 616.565857,386.949402 609.916199,386.875488 
	C606.602051,386.838684 605.082031,388.030060 605.112854,391.538605 
	C605.226624,404.521118 605.221436,417.505646 605.125305,430.488434 
	C605.099121,434.026154 606.729431,435.128296 610.007568,435.078491 
	C616.664062,434.977356 623.323486,435.071106 630.420898,435.127930 
z"/>
<path fill="#000000" opacity="1.000000" stroke="none" 
	d="
M202.418320,463.038757 
	C210.196426,463.044525 217.527985,463.140259 224.855392,463.007507 
	C229.215912,462.928497 231.275879,464.599670 231.249939,469.174133 
	C231.224854,473.597778 228.818161,474.390778 225.144669,474.362793 
	C214.316910,474.280273 203.486267,474.226624 192.660568,474.400330 
	C188.335480,474.469696 186.765991,472.747681 186.779572,468.482697 
	C186.871964,439.496185 186.871918,410.509064 186.760498,381.522644 
	C186.743835,377.189209 188.448456,375.581268 192.690613,375.614166 
	C202.682724,375.691650 212.677231,375.532715 222.670029,375.409607 
	C226.352554,375.364258 228.141373,376.891724 228.256104,380.743195 
	C228.371246,384.608551 227.082108,386.928497 222.987778,386.909515 
	C216.996429,386.881714 211.003372,386.806000 205.015274,386.616272 
	C199.049026,386.427277 197.985123,387.344910 197.905746,393.287201 
	C197.743408,405.440430 198.386993,417.605865 197.412170,429.745941 
	C197.107590,433.539062 198.541153,435.221954 202.530457,435.089355 
	C209.020111,434.873627 215.521912,435.040588 222.018341,435.004913 
	C225.977661,434.983154 228.340744,436.366669 228.186371,440.854858 
	C228.039215,445.133118 225.670044,446.135010 221.957306,446.063324 
	C215.462585,445.937927 208.962769,446.078247 202.467972,445.954742 
	C199.371017,445.895874 197.691727,447.217163 197.599625,450.261108 
	C197.509247,453.248383 197.540512,456.250031 197.730972,459.231812 
	C197.891174,461.740082 199.253693,463.219727 202.418320,463.038757 
z"/>
<path fill="#000000" opacity="1.000000" stroke="none" 
	d="
M263.015991,394.002686 
	C263.015289,414.975616 263.006836,435.449036 263.028198,455.922455 
	C263.035553,462.988434 263.125946,463.026642 270.387939,462.998199 
	C276.380127,462.974701 282.372559,463.010651 288.364777,462.990509 
	C291.821106,462.978882 294.723267,463.400360 294.627563,468.012085 
	C294.542023,472.135101 293.388824,474.557373 288.587860,474.449371 
	C278.272705,474.217438 267.947021,474.234863 257.630005,474.408325 
	C253.256699,474.481842 251.770081,472.643768 251.782440,468.451080 
	C251.867752,439.488312 251.865173,410.525085 251.793945,381.562256 
	C251.783752,377.418518 253.208466,375.474304 257.621155,375.562927 
	C261.855255,375.647949 263.150208,377.714508 263.053467,381.519806 
	C262.951935,385.511963 263.023834,389.508545 263.015991,394.002686 
z"/>
<path fill="#000000" opacity="1.000000" stroke="none" 
	d="
M803.110229,436.000000 
	C803.108398,442.663879 803.103455,448.827759 803.110779,454.991638 
	C803.120422,463.115204 803.124512,463.107422 811.496582,463.088959 
	C817.327209,463.076111 823.158081,463.126373 828.988281,463.076141 
	C832.928833,463.042206 835.194031,464.333893 835.268433,468.838104 
	C835.345642,473.507263 832.990356,474.415833 829.039978,474.365326 
	C818.879395,474.235382 808.714600,474.199402 798.554871,474.351349 
	C794.320740,474.414642 792.614563,472.883698 792.629761,468.511444 
	C792.730835,439.358124 792.696594,410.204041 792.591248,381.050659 
	C792.577454,377.229614 793.959656,375.639984 797.834412,375.618042 
	C801.728455,375.596008 803.194092,377.254486 803.177490,381.024506 
	C803.097656,399.182770 803.123901,417.341461 803.110229,436.000000 
z"/>
<path fill="#000000" opacity="1.000000" stroke="none" 
	d="
M369.132507,396.000793 
	C369.125153,413.972412 369.190338,431.444611 369.086182,448.915833 
	C369.008728,461.909119 362.259003,470.868347 350.759552,473.605927 
	C348.305664,474.190125 345.214355,475.091431 344.545471,471.737335 
	C343.911499,468.558075 343.205750,464.802765 347.872955,463.025879 
	C356.256958,459.834015 357.887238,457.111237 357.883575,448.010162 
	C357.874786,426.045563 357.849854,404.080902 357.880981,382.116364 
	C357.888763,376.638367 359.207916,375.468079 364.209198,375.627991 
	C367.506256,375.733368 369.121002,377.237091 369.118256,380.525269 
	C369.114075,385.517181 369.126862,390.509064 369.132507,396.000793 
z"/>
<path fill="#000000" opacity="1.000000" stroke="none" 
	d="
M768.046326,442.000000 
	C768.043762,451.153870 767.968689,459.808624 768.073792,468.461182 
	C768.124817,472.658905 766.450928,474.439606 762.108826,474.368561 
	C757.769653,474.297516 756.831604,472.114838 756.839417,468.355408 
	C756.899292,439.397949 756.952332,410.439697 756.767517,381.483276 
	C756.737000,376.703796 758.873413,375.325623 763.024292,375.323151 
	C767.339844,375.320587 768.210693,377.964111 768.195557,381.588745 
	C768.112122,401.559021 768.090637,421.529541 768.046326,442.000000 
z"/>
<path fill="#000000" opacity="1.000000" stroke="none" 
	d="
M215.639343,545.380859 
	C216.831223,542.086426 217.813995,539.082458 218.979950,536.151367 
	C219.858582,533.942505 221.551208,532.591187 224.033752,532.982056 
	C226.731049,533.406738 227.230194,535.445251 227.222015,537.825867 
	C227.188339,547.635681 227.145462,557.446350 227.246277,567.255249 
	C227.279053,570.444702 226.424255,572.409790 222.816284,572.311157 
	C219.329529,572.215820 218.849533,569.949524 218.869125,567.215027 
	C218.879227,565.803650 218.870895,564.392151 218.870895,562.529419 
	C216.220764,564.945679 216.934494,568.809387 213.644867,570.347046 
	C210.491211,568.736023 211.237778,564.776306 208.708420,562.153137 
	C208.833893,564.593262 209.049835,566.608826 209.014175,568.619873 
	C208.962997,571.506836 207.290878,572.851013 204.483597,572.641418 
	C201.825531,572.442932 200.253494,571.266113 200.307907,568.215149 
	C200.485641,558.249756 200.496445,548.281433 200.570068,538.314209 
	C200.587463,535.959473 200.357193,533.293701 203.594238,532.967102 
	C206.503403,532.673645 208.132202,534.565796 209.075897,537.133301 
	C210.431778,540.822021 211.423004,544.671936 213.516647,547.974915 
	C215.108322,547.744995 214.952835,546.449036 215.639343,545.380859 
z"/>
<path fill="#000000" opacity="1.000000" stroke="none" 
	d="
M825.809998,560.403809 
	C818.698792,575.882751 799.245972,575.479370 791.854614,565.287354 
	C786.296143,557.622742 786.264282,547.401672 792.018677,540.326111 
	C797.360107,533.758362 807.941711,531.256287 815.573547,534.756470 
	C823.511780,538.397156 828.301575,547.672058 826.846436,556.666809 
	C826.661743,557.808716 826.260132,558.915527 825.809998,560.403809 
M817.767700,548.943665 
	C814.400696,542.793579 809.789856,540.306030 804.642700,541.862610 
	C798.435486,543.739807 794.797363,549.884155 796.410767,555.765320 
	C798.076172,561.835632 804.118591,565.273071 810.397217,563.721924 
	C816.162048,562.297668 819.417542,556.290527 817.767700,548.943665 
z"/>
<path fill="#000000" opacity="1.000000" stroke="none" 
	d="
M278.278046,533.106445 
	C283.115479,532.270996 284.679077,534.308411 284.524902,538.614990 
	C284.280792,545.432678 284.480377,552.265686 284.266846,559.085144 
	C283.987610,568.003723 279.121857,572.744995 270.970856,572.336792 
	C263.588989,571.967041 259.407196,566.659912 259.557922,558.286682 
	C259.662567,552.471008 259.377014,546.648804 259.302032,540.829102 
	C259.282837,539.339355 259.252655,537.823853 259.490356,536.362915 
	C259.855377,534.119446 261.216370,532.795349 263.611389,532.876770 
	C266.125305,532.962280 267.140503,534.566223 267.169159,536.823364 
	C267.245178,542.815125 267.215851,548.808105 267.236725,554.800598 
	C267.241943,556.298401 267.216339,557.800049 267.313934,559.292908 
	C267.494965,562.061890 269.118683,563.639465 271.796631,563.666077 
	C274.715302,563.695129 275.828522,561.688293 275.846313,559.027039 
	C275.890839,552.368896 275.849365,545.710022 275.904449,539.052002 
	C275.921967,536.933228 275.564697,534.619934 278.278046,533.106445 
z"/>
<path fill="#000000" opacity="1.000000" stroke="none" 
	d="
M650.645996,572.468750 
	C647.585510,572.685425 646.218750,571.233582 644.922852,568.951172 
	C642.770081,565.159851 638.978210,565.370728 637.146240,569.377319 
	C635.667419,572.611450 633.220093,572.856201 630.556946,572.034668 
	C627.479980,571.085449 628.770203,568.749146 629.346558,566.657654 
	C632.039429,556.885498 634.654663,547.091980 637.309204,537.309143 
	C637.838623,535.358093 638.353333,533.163025 640.893127,533.176758 
	C643.534912,533.191040 644.463440,535.352539 645.051270,537.495117 
	C647.822205,547.594482 650.544800,557.707275 653.253235,567.823669 
	C653.823608,569.954346 653.738342,571.863831 650.645996,572.468750 
z"/>
<path fill="#000000" opacity="1.000000" stroke="none" 
	d="
M476.143066,545.004150 
	C476.124023,549.346130 479.094421,548.750977 481.474091,548.807922 
	C484.253540,548.874451 487.069458,548.768677 487.217194,552.595703 
	C487.371460,556.591370 484.629272,557.040039 481.528687,557.068176 
	C478.863617,557.092285 476.095612,556.820374 476.121185,560.985168 
	C476.147522,565.270874 479.068909,564.648438 481.646362,564.699951 
	C484.443359,564.755859 487.232788,564.767517 487.227966,568.635864 
	C487.222565,572.984741 484.121490,572.484253 481.220001,572.408447 
	C467.827576,572.058289 467.818512,572.076782 467.774475,558.823975 
	C467.753479,552.507507 467.771881,546.190979 467.773132,539.874451 
	C467.773285,539.209595 467.816345,538.542297 467.774628,537.880188 
	C467.542664,534.198669 470.076874,533.046204 472.874329,533.294312 
	C477.667938,533.719666 483.696838,530.277893 486.899536,536.070679 
	C488.551270,539.058167 486.200592,541.185608 482.491638,541.298096 
	C480.002197,541.373596 476.364716,539.904724 476.143066,545.004150 
z"/>
<path fill="#000000" opacity="1.000000" stroke="none" 
	d="
M695.730225,556.903687 
	C699.726440,563.392273 703.357910,565.163269 709.530945,563.445374 
	C712.039734,562.747192 714.279846,562.020142 714.904175,565.421326 
	C715.502930,568.683533 714.693359,571.303528 710.900757,572.266296 
	C701.059326,574.764526 690.783447,569.249207 687.608032,559.172302 
	C685.379517,552.100281 686.247437,545.247070 691.581421,539.632202 
	C696.767761,534.172852 703.164978,532.136230 710.648254,533.615417 
	C713.783691,534.235107 715.323547,535.939819 715.058350,539.151794 
	C714.828003,541.941650 713.858887,543.383545 710.553589,542.544434 
	C700.063721,539.881226 693.809631,545.816650 695.730225,556.903687 
z"/>
<path fill="#000000" opacity="1.000000" stroke="none" 
	d="
M591.342712,558.356812 
	C589.675049,559.508301 588.390259,560.827026 586.866394,561.221130 
	C583.345703,562.131592 581.926514,564.088867 582.257202,567.688293 
	C582.529114,570.647278 581.195862,572.559631 577.963379,572.458862 
	C574.532471,572.352051 574.265808,570.222595 574.321289,567.298889 
	C574.504395,557.660217 574.576233,548.008606 574.256836,538.376282 
	C574.111694,534.001587 576.462158,533.212219 579.773987,533.235779 
	C586.128662,533.280945 591.620667,534.932556 594.438782,541.462280 
	C597.118164,547.670532 595.929321,553.128784 591.342712,558.356812 
M585.980530,542.885742 
	C584.741699,541.902344 582.972351,540.806458 582.622009,543.157043 
	C582.115723,546.553406 581.380554,550.206970 583.407654,553.568176 
	C588.301270,550.866028 588.900818,548.713379 585.980530,542.885742 
z"/>
<path fill="#000000" opacity="1.000000" stroke="none" 
	d="
M520.174683,564.044189 
	C522.078064,561.707031 523.651733,563.247742 525.231079,563.968201 
	C528.334045,565.383972 531.292969,565.410645 532.946045,562.058594 
	C534.595154,558.714600 531.742798,557.388916 529.442688,556.018982 
	C527.729553,554.998657 525.886292,554.150513 524.315308,552.946167 
	C519.395996,549.174683 518.440979,543.704895 521.704834,538.874207 
	C524.857910,534.207458 532.222412,532.121155 536.823242,534.568420 
	C539.110046,535.784790 539.729858,537.785828 539.072388,540.054810 
	C538.367859,542.485962 536.422302,542.004028 534.547546,541.560730 
	C532.151672,540.994141 529.565125,540.862671 528.649414,543.669800 
	C527.708740,546.553284 530.229187,547.875305 532.266357,548.872070 
	C537.813904,551.586548 542.345093,554.759277 541.370544,562.030396 
	C540.751038,566.652893 538.178467,569.837463 534.163391,571.450989 
	C530.078430,573.092712 525.651733,573.149475 521.688843,570.682190 
	C519.313416,569.203247 519.608887,566.740723 520.174683,564.044189 
z"/>
<path fill="#000000" opacity="1.000000" stroke="none" 
	d="
M385.470886,562.351440 
	C385.554169,564.419495 385.605225,566.078613 385.759369,567.728210 
	C386.047607,570.812317 384.738892,572.567017 381.594055,572.574402 
	C378.679871,572.581238 377.581451,570.962769 377.633942,568.074036 
	C377.763702,560.930420 377.589844,553.780579 377.764740,546.638794 
	C377.853821,543.001526 376.901337,540.843445 372.778931,541.184753 
	C370.138184,541.403503 368.727722,540.042725 368.702576,537.358093 
	C368.676331,534.555786 370.026428,532.911255 372.873413,532.880005 
	C378.855103,532.814514 384.838043,532.851746 390.820435,532.869690 
	C393.748932,532.878479 394.971497,534.528381 394.983124,537.306946 
	C394.994781,540.087341 393.327209,541.341248 390.857605,541.140869 
	C386.371857,540.776855 385.471985,543.456299 385.447235,546.991089 
	C385.412354,551.973145 385.468109,556.955811 385.470886,562.351440 
z"/>
<path fill="#000000" opacity="1.000000" stroke="none" 
	d="
M268.912109,431.365967 
	C267.010651,421.607056 268.043854,412.103302 267.809082,402.648773 
	C267.631653,395.503204 267.835022,388.348938 267.767548,381.199493 
	C267.738342,378.109558 268.570251,375.957153 272.131531,375.907867 
	C275.527740,375.860901 277.175720,377.774384 276.927887,380.890717 
	C275.690552,396.449463 276.792389,412.150330 274.092743,427.612610 
	C273.809875,429.232635 273.408478,430.929718 272.617950,432.342560 
	C271.076263,435.097839 269.883881,433.931519 268.912109,431.365967 
z"/>
<path fill="#000000" opacity="1.000000" stroke="none" 
	d="
M316.174286,561.576660 
	C316.289642,553.492126 316.509857,545.844421 316.540741,538.195923 
	C316.552460,535.299683 317.226013,533.156677 320.535950,533.136963 
	C323.690552,533.118225 324.955322,535.155457 324.984772,538.009277 
	C325.055267,544.832092 325.249176,551.666138 324.945618,558.475769 
	C324.738403,563.124146 326.062378,565.492798 331.062775,564.727783 
	C331.862732,564.605408 332.724518,564.773193 333.542358,564.903381 
	C335.727875,565.251160 336.626831,566.647888 336.572662,568.772766 
	C336.517487,570.937317 335.463074,572.307983 333.263947,572.354919 
	C328.773926,572.450867 324.279907,572.446167 319.788971,572.382263 
	C317.315308,572.347046 316.286774,570.908386 316.338593,568.476379 
	C316.384430,566.323914 316.255524,564.167664 316.174286,561.576660 
z"/>
<path fill="#000000" opacity="1.000000" stroke="none" 
	d="
M781.243042,408.081909 
	C781.102234,416.020874 780.260254,423.330811 776.938171,430.444580 
	C773.955994,429.078949 774.054504,426.730896 774.001404,424.735199 
	C773.621399,410.436859 773.337097,396.135681 773.091064,381.834259 
	C773.040405,378.890015 773.302734,375.897797 777.398193,375.963104 
	C781.539856,376.029144 782.147766,378.910278 782.053955,382.178497 
	C781.810608,390.656067 781.522461,399.132294 781.243042,408.081909 
z"/>
<path fill="#000000" opacity="1.000000" stroke="none" 
	d="
M421.082184,379.395508 
	C418.819214,393.857422 419.761292,408.355225 415.224762,422.082825 
	C414.907654,423.042358 414.488556,423.941772 413.220123,424.185303 
	C411.070129,423.194489 411.114075,421.024200 410.906921,419.145050 
	C409.502991,406.410583 409.979492,393.619080 409.854828,380.845306 
	C409.832855,378.598572 410.587494,376.808777 412.860046,376.292480 
	C416.026520,375.573059 419.212341,375.289886 421.082184,379.395508 
z"/>
<path fill="#000000" opacity="1.000000" stroke="none" 
	d="
M232.810608,387.604706 
	C232.883270,384.666870 232.878006,382.171906 233.012161,379.684509 
	C233.084747,378.338562 233.372391,376.904816 235.103012,376.773804 
	C236.697235,376.653076 237.698410,377.744568 237.848694,379.129395 
	C238.368591,383.919952 238.576752,388.750519 237.740738,393.517151 
	C237.366135,395.652985 235.511490,396.196533 233.510880,396.186493 
	C230.187302,396.169861 226.818207,396.535156 223.550461,396.109222 
	C218.639023,395.469025 216.227020,397.721375 214.718628,402.041656 
	C213.684204,405.004425 212.155151,407.800812 210.759125,410.628082 
	C210.154358,411.852936 209.230499,412.886658 207.657990,412.684662 
	C206.161392,412.492401 205.334839,411.415009 204.921494,410.090912 
	C203.407822,405.241943 203.433853,400.254913 203.938843,395.283997 
	C204.214966,392.565887 206.334946,392.003540 208.706436,391.992310 
	C215.187317,391.961670 221.667999,391.872772 228.148880,391.856445 
	C230.781372,391.849823 232.795288,391.214050 232.810608,387.604706 
z"/>
<path fill="#000000" opacity="1.000000" stroke="none" 
	d="
M611.913452,407.665894 
	C611.627014,406.985565 611.479614,406.679169 611.411011,406.356018 
	C608.754150,393.835419 610.088867,392.110504 622.578369,391.962494 
	C625.909668,391.923035 629.241516,391.933411 632.573120,391.915955 
	C639.832397,391.877960 639.815125,391.876587 639.827576,384.789642 
	C639.830811,382.963257 639.864624,381.121918 640.103394,379.316406 
	C640.257263,378.153076 640.865173,377.005951 642.263977,376.909698 
	C643.928711,376.795227 644.814941,378.006683 644.867798,379.370819 
	C645.035217,383.689148 645.133057,388.024963 644.922729,392.337677 
	C644.797791,394.899017 642.900330,395.977112 640.400024,396.002960 
	C637.069397,396.037354 633.710144,396.407776 630.415710,396.089783 
	C625.803711,395.644562 623.278503,397.731354 621.689270,401.774261 
	C620.906128,403.766785 619.876099,405.720398 618.634277,407.460846 
	C616.790955,410.044495 614.531982,410.858093 611.913452,407.665894 
z"/>
<path fill="#000000" opacity="1.000000" stroke="none" 
	d="
M376.478394,376.622070 
	C380.576660,375.656830 383.241455,376.497894 383.176056,380.931763 
	C382.970062,394.893341 381.801117,408.795410 380.384521,422.676453 
	C380.225677,424.232910 380.317993,426.092926 378.444183,427.007721 
	C376.184998,426.422241 376.016846,424.550751 375.802704,422.721741 
	C374.154022,408.641174 375.041687,394.492249 374.672333,380.377136 
	C374.636353,379.001923 374.948822,377.733398 376.478394,376.622070 
z"/>
<path fill="#000000" opacity="1.000000" stroke="none" 
	d="
M814.824219,419.319550 
	C814.271667,421.229340 814.223572,422.992981 812.095581,424.133636 
	C809.087158,419.438599 809.438171,414.128174 809.154114,409.213104 
	C808.618652,399.949097 808.902039,390.638702 808.802063,381.348053 
	C808.769409,378.311401 809.481506,376.025421 813.175964,376.217224 
	C816.759705,376.403290 817.298523,378.704407 817.292969,381.717834 
	C817.269897,394.174011 816.466187,406.572906 814.824219,419.319550 
z"/>
<path fill="#000000" opacity="1.000000" stroke="none" 
	d="
M754.174133,534.175293 
	C756.040466,537.830566 755.102905,541.369934 755.182739,544.809143 
	C755.364075,552.624695 755.244202,560.446899 755.382812,568.264038 
	C755.430908,570.976562 754.319702,572.315125 751.667114,572.469543 
	C748.945557,572.627930 746.953979,571.661987 746.934021,568.675903 
	C746.864014,558.195740 746.692322,547.707214 747.038208,537.237732 
	C747.179016,532.976685 750.258240,532.285278 754.174133,534.175293 
z"/>
<path fill="#000000" opacity="1.000000" stroke="none" 
	d="
M435.278870,561.785217 
	C435.299927,563.917236 435.249908,565.586426 435.358948,567.245117 
	C435.539856,569.996216 435.220917,572.392822 431.746002,572.558044 
	C428.300751,572.721802 427.036011,570.747986 427.056519,567.552002 
	C427.109955,559.229797 427.121124,550.907227 427.151978,542.584839 
	C427.158142,540.927612 427.198639,539.270264 427.185150,537.613281 
	C427.161926,534.763733 428.584717,533.218872 431.399261,533.163635 
	C434.148071,533.109558 435.246429,534.863953 435.260590,537.346680 
	C435.306183,545.336731 435.278625,553.327271 435.278870,561.785217 
z"/>
<path fill="#000000" opacity="1.000000" stroke="none" 
	d="
M524.947510,383.380005 
	C526.289795,390.116577 527.608826,396.444672 528.720337,402.808960 
	C529.249817,405.840179 529.625916,408.992462 527.332764,411.462158 
	C525.058228,411.308929 524.474976,409.835693 523.932678,408.488586 
	C520.468689,399.883789 517.021179,391.271637 513.669678,382.622650 
	C512.831421,380.459503 510.835022,377.478058 514.552124,376.441620 
	C517.716797,375.559265 521.627075,374.810669 523.449219,379.257812 
	C523.951843,380.484558 524.377869,381.742676 524.947510,383.380005 
z"/>
<path fill="#000000" opacity="1.000000" stroke="none" 
	d="
M674.921021,443.894470 
	C675.066528,435.396576 674.398254,427.332642 675.618835,419.041168 
	C685.275818,423.759674 685.862488,446.808929 677.130371,455.245117 
	C674.428711,451.966705 675.237549,448.044647 674.921021,443.894470 
z"/>
<path fill="#000000" opacity="1.000000" stroke="none" 
	d="
M574.458862,401.375732 
	C570.424866,412.019684 566.163696,422.132324 561.280518,432.578766 
	C558.934753,429.664124 560.272949,427.611755 560.927490,425.742096 
	C566.024231,411.184448 571.235352,396.666779 576.431885,382.144165 
	C576.822327,381.052948 577.323853,379.993408 577.861267,378.964874 
	C578.522156,377.700287 579.549500,376.693481 581.044067,377.217407 
	C582.932007,377.879272 582.712463,379.469910 582.152466,380.968597 
	C579.653320,387.656616 577.125366,394.333832 574.458862,401.375732 
z"/>
<path fill="#000000" opacity="1.000000" stroke="none" 
	d="
M746.963135,397.979309 
	C746.652039,409.272858 746.410706,420.076599 744.727173,430.819580 
	C742.170532,428.718597 742.406433,425.889435 742.343384,423.439728 
	C741.996643,409.969727 741.911743,396.492676 741.785828,383.017578 
	C741.770447,381.367188 741.816711,379.289978 744.008667,379.182404 
	C746.370728,379.066437 746.935364,381.087189 746.963867,383.008789 
	C747.035339,387.832855 746.974548,392.658875 746.963135,397.979309 
z"/>
<path fill="#000000" opacity="1.000000" stroke="none" 
	d="
M483.767334,379.080566 
	C483.986633,394.835358 484.577240,410.221741 482.726166,426.057648 
	C479.876312,424.636993 480.038971,422.548798 479.848328,420.669830 
	C478.518433,407.561737 478.904083,394.405762 478.791870,381.264282 
	C478.777802,379.617310 478.613739,377.740448 480.544464,376.972290 
	C482.080688,376.361145 483.033142,377.353699 483.767334,379.080566 
z"/>
<path fill="#000000" opacity="1.000000" stroke="none" 
	d="
M680.360229,388.609802 
	C679.033508,386.868225 677.895386,385.430420 676.844299,383.931641 
	C676.023865,382.761810 674.466980,381.453339 676.017639,380.051575 
	C677.583130,378.636383 678.787231,380.186371 679.702515,381.314270 
	C683.892395,386.477539 688.068115,391.654480 692.135681,396.914001 
	C694.335754,399.758881 696.308655,402.779541 697.791626,406.248291 
	C691.004944,401.479370 685.593384,395.388672 680.360229,388.609802 
z"/>
<path fill="#000000" opacity="1.000000" stroke="none" 
	d="
M237.352600,445.853027 
	C237.067841,447.667023 237.382523,449.363556 235.214478,450.004303 
	C232.707016,447.768646 233.652420,444.492462 233.143661,441.739471 
	C232.606064,438.830444 232.813019,435.772766 232.810623,432.779877 
	C232.809067,430.818878 232.560364,428.208771 235.308273,428.169800 
	C238.355972,428.126556 238.217804,430.875427 238.139603,433.011749 
	C237.987686,437.160522 237.648727,441.302429 237.352600,445.853027 
z"/>
<path fill="#000000" opacity="1.000000" stroke="none" 
	d="
M236.765503,465.593689 
	C236.410995,463.448456 236.048767,461.679169 235.900742,459.892090 
	C235.789780,458.552307 236.135437,457.213104 237.399796,456.470062 
	C239.007156,455.525482 240.518219,456.209229 241.077423,457.670776 
	C242.374939,461.061951 241.951324,464.630035 239.836929,467.438995 
	C238.442642,469.291290 237.424088,467.395081 236.765503,465.593689 
z"/>
<path fill="#000000" opacity="1.000000" stroke="none" 
	d="
M642.887329,428.310150 
	C647.074097,432.849518 644.136963,436.743530 642.698242,441.603394 
	C639.165161,434.960541 639.253784,430.897003 642.887329,428.310150 
z"/>
<path fill="#000000" opacity="1.000000" stroke="none" 
	d="
M299.938232,465.465912 
	C299.746735,463.136841 299.608856,461.179169 299.598633,459.220886 
	C299.592590,458.063538 299.784668,456.819519 301.064819,456.370178 
	C302.589478,455.835083 303.741760,456.780884 304.232361,457.994568 
	C305.491455,461.109406 304.641754,464.204926 302.960999,466.814362 
	C301.926239,468.420898 300.745880,467.064362 299.938232,465.465912 
z"/>
<path fill="#000000" opacity="1.000000" stroke="none" 
	d="
M840.825867,463.833954 
	C840.423035,461.295288 839.042542,458.945801 841.519348,457.160828 
	C842.440369,456.497070 843.509277,456.803192 844.131409,457.681946 
	C845.726624,459.935547 845.429321,462.479340 844.368652,464.712677 
	C843.013245,467.566559 841.763977,466.421661 840.825867,463.833954 
z"/>
<path fill="#000000" opacity="1.000000" stroke="none" 
	d="
M647.834961,461.513397 
	C647.251465,463.000488 647.012756,464.946075 645.286499,464.081024 
	C643.245361,463.058197 643.541260,460.747345 643.705383,458.809570 
	C643.810181,457.572052 644.595093,456.502075 645.982422,456.812714 
	C648.410767,457.356506 648.110352,459.328918 647.834961,461.513397 
z"/>
</svg>